<?xml version="1.0" encoding="UTF-8"?>
<svg xmlns="http://www.w3.org/2000/svg" xmlns:xlink="http://www.w3.org/1999/xlink" width="510.34pt" height="510.34pt" viewBox="0 0 510.34 510.34" version="1.1">
<defs>
<clipPath id="clip1">
  <path d="M 0 0 L 510.339844 0 L 510.339844 510.339844 L 0 510.339844 Z M 0 0 "/>
</clipPath>
</defs>
<g id="surface1">
<g clip-path="url(#clip1)" clip-rule="nonzero">
<path style="fill-rule:nonzero;fill:rgb(100%,100%,100%);fill-opacity:1;stroke-width:0.09962;stroke-linecap:butt;stroke-linejoin:miter;stroke:rgb(100%,100%,100%);stroke-opacity:1;stroke-miterlimit:10;" d="M 0.00078125 0.0009375 L 510.242969 0.0009375 L 510.242969 510.243125 L 0.00078125 510.243125 Z M 0.00078125 0.0009375 " transform="matrix(1,0,0,-1,0.05,510.29)"/>
<path style="fill-rule:nonzero;fill:rgb(30.981445%,70.399475%,43.908691%);fill-opacity:1;stroke-width:0.09962;stroke-linecap:butt;stroke-linejoin:miter;stroke:rgb(100%,100%,100%);stroke-opacity:1;stroke-miterlimit:10;" d="M 460.750781 0.0009375 L 510.242969 460.750937 L 49.492969 510.243125 L 0.00078125 49.493125 Z M 460.750781 0.0009375 " transform="matrix(1,0,0,-1,0.05,510.29)"/>
</g>
<path style="fill-rule:nonzero;fill:rgb(100%,100%,100%);fill-opacity:1;stroke-width:0.09962;stroke-linecap:butt;stroke-linejoin:miter;stroke:rgb(100%,100%,100%);stroke-opacity:1;stroke-miterlimit:10;" d="M 505.442187 416.055625 L 94.188281 505.442344 L 4.801563 94.184531 L 416.055469 4.801719 Z M 505.442187 416.055625 " transform="matrix(1,0,0,-1,0.05,510.29)"/>
<path style="fill-rule:nonzero;fill:rgb(8.865356%,61.204529%,32.618713%);fill-opacity:1;stroke-width:0.09962;stroke-linecap:butt;stroke-linejoin:miter;stroke:rgb(100%,100%,100%);stroke-opacity:1;stroke-miterlimit:10;" d="M 134.078906 496.770469 L 13.469531 134.079062 L 376.164844 13.469687 L 496.770312 376.165 Z M 134.078906 496.770469 " transform="matrix(1,0,0,-1,0.05,510.29)"/>
<path style="fill-rule:nonzero;fill:rgb(100%,100%,100%);fill-opacity:1;stroke-width:0.09962;stroke-linecap:butt;stroke-linejoin:miter;stroke:rgb(100%,100%,100%);stroke-opacity:1;stroke-miterlimit:10;" d="M 25.16875 169.25875 L 340.985156 25.168906 L 485.071094 340.981406 L 169.258594 485.07125 Z M 25.16875 169.25875 " transform="matrix(1,0,0,-1,0.05,510.29)"/>
<path style="fill-rule:nonzero;fill:rgb(0%,56.451416%,26.663208%);fill-opacity:1;stroke-width:0.09962;stroke-linecap:butt;stroke-linejoin:miter;stroke:rgb(100%,100%,100%);stroke-opacity:1;stroke-miterlimit:10;" d="M 310.348437 39.145469 L 471.094531 310.348594 L 199.895312 471.094687 L 39.145313 199.891562 Z M 310.348437 39.145469 " transform="matrix(1,0,0,-1,0.05,510.29)"/>
<path style="fill-rule:nonzero;fill:rgb(100%,100%,100%);fill-opacity:1;stroke-width:0.09962;stroke-linecap:butt;stroke-linejoin:miter;stroke:rgb(100%,100%,100%);stroke-opacity:1;stroke-miterlimit:10;" d="M 455.504687 284.043906 L 226.2 455.504844 L 54.739063 226.200156 L 284.04375 54.739219 Z M 455.504687 284.043906 " transform="matrix(1,0,0,-1,0.05,510.29)"/>
<path style="fill-rule:nonzero;fill:rgb(0%,54.652405%,25.68512%);fill-opacity:1;stroke-width:0.09962;stroke-linecap:butt;stroke-linejoin:miter;stroke:rgb(100%,100%,100%);stroke-opacity:1;stroke-miterlimit:10;" d="M 248.442187 438.872031 L 71.371875 248.442344 L 261.801562 71.372031 L 438.871875 261.801719 Z M 248.442187 438.872031 " transform="matrix(1,0,0,-1,0.05,510.29)"/>
<path style="fill-rule:nonzero;fill:rgb(100%,100%,100%);fill-opacity:1;stroke-width:0.09962;stroke-linecap:butt;stroke-linejoin:miter;stroke:rgb(100%,100%,100%);stroke-opacity:1;stroke-miterlimit:10;" d="M 88.547656 266.915 L 243.328906 88.547812 L 421.696094 243.329062 L 266.914844 421.69625 Z M 88.547656 266.915 " transform="matrix(1,0,0,-1,0.05,510.29)"/>
<path style="fill-rule:nonzero;fill:rgb(0%,52.854919%,24.707031%);fill-opacity:1;stroke-width:0.09962;stroke-linecap:butt;stroke-linejoin:miter;stroke:rgb(100%,100%,100%);stroke-opacity:1;stroke-miterlimit:10;" d="M 228.313281 105.848594 L 404.395312 228.313437 L 281.926562 404.395469 L 105.848438 281.926719 Z M 228.313281 105.848594 " transform="matrix(1,0,0,-1,0.05,510.29)"/>
<path style="fill-rule:nonzero;fill:rgb(100%,100%,100%);fill-opacity:1;stroke-width:0.09962;stroke-linecap:butt;stroke-linejoin:miter;stroke:rgb(100%,100%,100%);stroke-opacity:1;stroke-miterlimit:10;" d="M 387.313281 216.434531 L 293.805469 387.313437 L 122.926563 293.805625 L 216.434375 122.926719 Z M 387.313281 216.434531 " transform="matrix(1,0,0,-1,0.05,510.29)"/>
<path style="fill-rule:nonzero;fill:rgb(0%,51.057434%,23.728943%);fill-opacity:1;stroke-width:0.09962;stroke-linecap:butt;stroke-linejoin:miter;stroke:rgb(100%,100%,100%);stroke-opacity:1;stroke-miterlimit:10;" d="M 302.875781 370.739219 L 139.504687 302.875937 L 207.364062 139.504844 L 370.739062 207.364219 Z M 302.875781 370.739219 " transform="matrix(1,0,0,-1,0.05,510.29)"/>
<path style="fill-rule:nonzero;fill:rgb(100%,100%,100%);fill-opacity:1;stroke-width:0.09962;stroke-linecap:butt;stroke-linejoin:miter;stroke:rgb(100%,100%,100%);stroke-opacity:1;stroke-miterlimit:10;" d="M 155.352344 309.461875 L 200.782031 155.3525 L 354.891406 200.782187 L 309.461719 354.891562 Z M 155.352344 309.461875 " transform="matrix(1,0,0,-1,0.05,510.29)"/>
<path style="fill-rule:nonzero;fill:rgb(0%,49.256897%,22.749329%);fill-opacity:1;stroke-width:0.09962;stroke-linecap:butt;stroke-linejoin:miter;stroke:rgb(100%,100%,100%);stroke-opacity:1;stroke-miterlimit:10;" d="M 196.375781 170.297812 L 339.942187 196.375937 L 313.867969 339.942344 L 170.297656 313.868125 Z M 196.375781 170.297812 " transform="matrix(1,0,0,-1,0.05,510.29)"/>
<path style="fill-rule:nonzero;fill:rgb(100%,100%,100%);fill-opacity:1;stroke-width:0.09962;stroke-linecap:butt;stroke-linejoin:miter;stroke:rgb(100%,100%,100%);stroke-opacity:1;stroke-miterlimit:10;" d="M 326.016406 193.844687 L 316.395312 326.016562 L 184.227344 316.395469 L 193.844531 184.2275 Z M 326.016406 193.844687 " transform="matrix(1,0,0,-1,0.05,510.29)"/>
</g>
</svg>
